<svg width="360" height="250" viewBox="0 0 360 250" fill="none" xmlns="http://www.w3.org/2000/svg">
<path d="M113.34 238.44C134.7 249.78 161.95 251.74 185.67 247C196.92 244.76 206.13 243.4 214.76 242.29L215.27 242.22C218.88 241.76 222.39 241.34 225.91 240.92L226.76 240.81L227.61 240.71C238.29 239.41 249.24 237.99 263.48 235.15C275.14 232.82 285.88 222.46 296.51 213.16L296.9 212.81C302.89 207.59 308.83 202.73 314.89 199.86C316.15 199.26 317.36 198.67 318.5 198.07H318.52L318.54 198.06L318.57 198.04L318.61 198.02C318.83 197.9 319.05 197.79 319.27 197.67L319.31 197.65L319.34 197.63L319.41 197.6L319.45 197.58L319.48 197.56L319.51 197.54L319.55 197.52L319.92 197.32L319.96 197.3L319.99 197.29L320.02 197.27L320.36 197.08L320.39 197.07L320.43 197.05L320.46 197.03L320.49 197.01L320.53 196.99L320.56 196.97L320.59 196.95L320.63 196.94L320.66 196.92L320.69 196.9C336.17 188.33 340.59 179.54 350.97 162.23C354.69 156.03 368.61 136.85 369.44 129.67C370.86 117.47 367.91 110.66 369.37 98.47C371.04 84.53 372.43 75.95 374.12 62.03C374.12 41.5001 374.12 6.10352e-05 374.12 6.10352e-05L-15 6.10352e-05C-15 6.10352e-05 -15 18.0001 -15 54.0001C-15 77.0001 -11.02 105.59 1.95999 124.01C10.61 136.27 13.87 147.67 15.64 162.57C16.31 168.14 15.22 173.83 16.1 179.37C18.7 195.59 36.18 204.26 51.46 210.3C66.64 216.32 81.45 223.38 97.01 228.34C108.74 232.08 104.52 233.76 113.34 238.44ZM7.93999 167.95C6.92999 174.18 3.5 173.5 -1.90735e-06 169C-0.420002 166.93 -2.99 164.5 -4 162.57C-5.34489 160 -6.64001 157.42 -8.10001 155C-9.26001 151.19 -9.34001 147.99 -11.5 143C-11.5 140 -13.5 141 -13.5 135.5C-13.5 130 -11.05 126.27 -8.10001 128.55C-2.07001 133.19 3.14999 138.64 6.31999 145.67C7.95999 149.32 9.09999 152.66 9.53999 156.64C10.02 160.92 8.59999 163.88 7.93999 167.95ZM57.16 224.5C57.14 220.41 54.22 218.29 50.67 217.05C48.11 216.15 45.48 216.22 42.85 216.67C40.27 217.11 39.23 221.07 41.25 222.72C43.11 224.24 44.52 225.5 46.27 226.77C46.41 226.87 47.07 227.32 46.94 227.22C47.95 227.97 48.46 228.45 49.75 228.85C51.15 229.29 52.43 229.22 53.85 228.85C55.75 228.35 57.17 226.46 57.16 224.5ZM74.66 230.28C74.23 229.68 73.83 228.98 73.32 228.45C72.45 227.56 71.32 227.19 70.16 226.88C68.02 226.3 65.97 227.59 65.3 229.63C65 230.58 65.21 231.83 65.7 232.68C66.16 233.45 67.14 234.33 68.06 234.49C69.31 234.71 70.45 234.9 71.71 234.57C72.45 234.38 73.15 233.87 73.81 233.49C74.84 232.9 75.39 231.31 74.66 230.28ZM310.27 213.14C304.46 212.69 299.99 216.89 296.36 220.89C292.53 225.1 289.25 229.8 286.51 234.77C283.58 240.1 291.16 244.33 294.55 239.47C297.46 235.29 300.84 231.59 304.62 228.18C308.21 224.95 312.07 222.27 313.53 217.42C314.21 215.18 312.38 213.3 310.27 213.14ZM326.83 201.96C325.77 203 324.75 204.08 323.7 205.12C323.68 205.14 323.28 205.51 323.2 205.6C322.81 205.9 322.39 206.17 322.04 206.52C321.53 207.04 321.15 207.64 320.91 208.29C320.91 208.3 320.9 208.31 320.9 208.31C320.18 209.56 320.54 211.49 321.91 212.17C321.4 211.74 321.53 211.84 322.32 212.47C322.67 212.68 323.04 212.81 323.43 212.87C324.28 213.08 325.09 213.08 325.94 212.89C326.98 212.65 328.02 212.16 328.96 211.64C331.25 210.37 332.79 208.32 333.43 205.81C334.4 201.99 329.67 199.19 326.83 201.96ZM347.69 184.53C346.28 183.44 344.45 183.36 342.89 184.19C340.6 185.41 338.75 187.3 337.03 189.21C335.08 191.38 335.04 194.42 337.03 196.59C338.83 198.55 342.64 198.68 344.41 196.59C345.39 195.43 346.51 194.28 347.32 192.99C348.09 191.75 348.73 190.45 349.24 189.08C349.84 187.47 348.96 185.51 347.69 184.53Z" fill="#FFDD66"/>
</svg>
