<svg width="269" height="91" viewBox="0 0 269 91" fill="none" xmlns="http://www.w3.org/2000/svg">
<path fill-rule="evenodd" clip-rule="evenodd" d="M260.3 50.2801C262.29 50.8101 264.1 51.7901 265.61 53.3601C267.95 55.8001 269 58.8601 269 62.2201C269 65.5801 267.95 68.6401 265.61 71.0701C263.14 73.6301 259.87 74.6401 256.37 74.6401C252.87 74.6401 249.6 73.6301 247.13 71.0701C244.79 68.6401 243.74 65.5801 243.74 62.2201C243.74 58.8601 244.79 55.8001 247.13 53.3601C248.63 51.8001 250.43 50.8201 252.4 50.2901C251.66 50.1101 250.93 49.8601 250.23 49.5401C247.91 48.4701 246.61 46.4001 246.15 44.0101C245.63 41.5901 245.41 38.9201 245.23 36.4601C244.97 32.9701 244.75 29.4701 244.56 25.9701C244.36 22.2401 244.2 18.5001 244.1 14.7601C244.01 11.6001 243.94 8.43006 243.94 5.27006C243.94 4.22006 244.48 3.31006 245.4 2.80006C247.07 1.89006 248.87 1.22006 250.72 0.750061C252.63 0.270061 254.6 6.10352e-05 256.57 6.10352e-05C259.55 6.10352e-05 262.55 0.640061 264.88 2.61006C267.3 4.65006 268.18 7.60006 268.18 10.6901C268.18 12.9801 268.13 15.2701 268.08 17.5501C268.01 20.7901 267.86 24.0301 267.67 27.2701C267.46 30.7501 267.18 34.2301 266.84 37.7001C266.54 40.7701 266.15 43.8601 265.58 46.8901C265.44 47.6101 265.08 48.1901 264.5 48.6301C263.92 49.0601 263.24 49.3701 262.57 49.6201C261.88 49.8801 261.17 50.0901 260.46 50.2501C260.4 50.2601 260.35 50.2701 260.3 50.2801ZM0 38.9101C0 33.7401 0.75 28.5401 2.71 23.7301C4.45 19.4901 6.9 15.6601 10.23 12.4901C13.46 9.40006 17.24 7.12006 21.43 5.59006C25.83 3.98006 30.45 3.27006 35.12 3.27006C39.8 3.27006 44.42 3.98006 48.82 5.59006C53.02 7.12006 56.8 9.41006 60.06 12.4701C63.42 15.6401 65.9 19.4701 67.64 23.7301C69.6 28.5401 70.35 33.7401 70.35 38.9101C70.35 44.0801 69.61 49.2801 67.7 54.1101C66 58.3801 63.56 62.2501 60.22 65.4301C56.98 68.5201 53.18 70.8001 48.96 72.3301C44.52 73.9401 39.85 74.6401 35.12 74.6401C30.39 74.6401 25.71 73.9201 21.26 72.2701C17.05 70.7101 13.27 68.3901 10.05 65.2501C6.77 62.0501 4.35 58.2101 2.65 53.9601C0.74 49.1801 0 44.0401 0 38.9101H0ZM130.67 45.1401C130.67 49.3401 130.07 53.5501 128.53 57.4701C127.15 61.0001 125.14 64.1801 122.39 66.8101C119.68 69.4001 116.48 71.2901 112.95 72.5401C109.13 73.8901 105.1 74.4401 101.07 74.4401C97 74.4401 92.96 73.8501 89.14 72.4201C85.62 71.1001 82.43 69.1601 79.73 66.5401C77.01 63.9001 75 60.7401 73.6 57.2201C72.08 53.3701 71.46 49.2701 71.46 45.1401C71.46 41.0501 72.09 36.9901 73.6 33.1701C75 29.6501 77.01 26.4901 79.73 23.8501C82.43 21.2301 85.62 19.2901 89.14 17.9701C92.96 16.5401 97 15.9501 101.07 15.9501C105.15 15.9501 109.2 16.5601 113.02 18.0301C116.53 19.3801 119.7 21.3301 122.4 23.9501C125.12 26.5901 127.14 29.7501 128.53 33.2701C130.03 37.0601 130.67 41.0801 130.67 45.1401ZM156.54 73.8501V87.1601C156.54 88.4301 155.74 89.5001 154.53 89.8601C153.37 90.2101 152.08 90.4201 150.89 90.6101C149.22 90.8801 147.54 91.0001 145.85 91.0001C144.34 91.0001 142.82 90.9101 141.33 90.6601C139.8 90.3901 138.35 89.8401 137.11 88.9101C135.82 87.9401 134.9 86.6601 134.33 85.1601C133.7 83.5501 133.52 81.7301 133.52 80.0101V30.9301C133.52 28.7901 133.97 26.6601 135.18 24.8601C136.23 23.3101 137.6 22.0301 139.21 20.9001C141.85 19.2001 144.87 18.0601 147.9 17.2701C151.55 16.3201 155.37 15.9501 159.14 15.9501C163.27 15.9501 167.39 16.4601 171.35 17.6501C175.06 18.7701 178.49 20.5301 181.43 23.0801C184.37 25.6201 186.56 28.7601 188.1 32.3201C189.86 36.3801 190.48 40.8501 190.48 45.2501C190.48 49.4501 189.94 53.7301 188.46 57.6901C187.16 61.1701 185.24 64.3201 182.58 66.9301C179.97 69.5101 176.86 71.3601 173.4 72.5501C169.7 73.8201 165.8 74.3401 161.9 74.3401C160.09 74.3401 158.3 74.1801 156.54 73.8501ZM217.88 55.2301C217.13 54.8501 215.78 54.5901 215.02 54.4501L211.95 53.8301C206.96 52.8301 201.37 51.1201 197.43 47.7401C193.6 44.4501 192.11 39.8901 192.11 34.9201C192.11 32.0501 192.72 29.2801 194.07 26.7401C195.4 24.2701 197.25 22.2301 199.56 20.6401C201.97 18.9801 204.71 17.8401 207.53 17.0701C210.74 16.2001 214.09 15.8501 217.42 15.8501C219.95 15.8501 222.49 16.0301 224.99 16.4501C227.21 16.8201 229.42 17.4101 231.47 18.3501C233.37 19.2201 235.07 20.4301 236.38 22.0701C237.77 23.8001 238.43 25.8501 238.43 28.0701C238.43 29.9201 238.1 31.7501 237.25 33.4001C236.53 34.8001 235.57 36.0501 234.37 37.0701C233.42 37.8701 232.11 37.9701 231.05 37.3101C230.53 36.9801 229.76 36.7101 229.18 36.5101C228.09 36.1401 226.98 35.8301 225.87 35.5701C224.64 35.2801 223.4 35.0301 222.15 34.8401C221.1 34.6801 220.02 34.5701 218.95 34.5701C217.97 34.5701 216.65 34.6101 215.57 34.8801C216.24 35.0801 217.02 35.2601 217.42 35.3401L220.59 36.0601C225.77 37.2301 231.94 39.2201 235.87 42.9501C239.32 46.2301 240.88 50.4301 240.88 55.1601C240.88 61.0501 238.66 66.0101 233.94 69.5801C228.67 73.5501 221.48 74.5401 215.06 74.5401C212.24 74.5401 209.41 74.3601 206.63 73.8901C204.21 73.4901 201.77 72.8301 199.56 71.7501C197.59 70.7801 195.82 69.4701 194.47 67.7101C193.07 65.8601 192.41 63.7101 192.41 61.4001C192.41 59.4301 192.82 57.5001 193.84 55.8001C194.67 54.4301 195.71 53.2201 196.96 52.2301C197.87 51.5201 199.05 51.4201 200.07 51.9801C202.07 53.0901 204.22 53.9701 206.4 54.6901C208.93 55.5401 211.68 55.8201 214.35 55.8201C215.35 55.8201 216.95 55.7401 217.86 55.2501C217.86 55.2401 217.87 55.2401 217.88 55.2301ZM24.04 38.9101C24.04 42.8501 24.57 47.8501 27.18 51.0201C29.25 53.5401 31.89 54.6001 35.12 54.6001C38.39 54.6001 41.08 53.5601 43.17 51.0201C45.78 47.8501 46.31 42.8501 46.31 38.9101C46.31 34.9901 45.78 30.0401 43.21 26.8801C41.15 24.3401 38.47 23.3201 35.23 23.3201C31.98 23.3201 29.31 24.3701 27.21 26.8701C24.57 29.9901 24.04 34.9901 24.04 38.9101ZM94.89 45.1401C94.89 47.6901 95.21 50.9201 96.76 53.0601C97.87 54.5901 99.29 55.2101 101.17 55.2101C103.02 55.2101 104.39 54.6001 105.44 53.0701C106.92 50.8901 107.25 47.7101 107.25 45.1401C107.25 42.6101 106.92 39.4401 105.41 37.3101C104.33 35.7801 102.93 35.1801 101.07 35.1801C99.21 35.1801 97.8 35.7801 96.72 37.3101C95.21 39.4401 94.89 42.6101 94.89 45.1401ZM156.43 35.7301V54.5101C156.64 54.5801 156.84 54.6501 157.05 54.7101C157.8 54.9201 158.57 55.0101 159.34 55.0101C165.58 55.0101 167.06 50.9101 167.06 45.2501C167.06 42.7501 166.75 39.3401 165.09 37.3201C163.74 35.6801 161.83 35.1801 159.75 35.1801C158.86 35.1801 157.94 35.2701 157.08 35.5201C156.87 35.5901 156.65 35.6601 156.43 35.7301Z" fill="#000072"/>
<path d="M2.81982 38.9101C2.81982 33.5901 3.64982 28.8901 5.31982 24.8001C6.98982 20.7101 9.26982 17.2801 12.1698 14.5201C15.0698 11.7601 18.4798 9.67007 22.3998 8.24007C26.3098 6.80007 30.5598 6.09007 35.1198 6.09007C39.6898 6.09007 43.9298 6.80007 47.8498 8.24007C51.7698 9.67007 55.1998 11.7601 58.1298 14.5201C61.0598 17.2801 63.3598 20.7101 65.0298 24.8001C66.6998 28.8901 67.5298 33.5901 67.5298 38.9101C67.5298 44.2201 66.7198 48.9401 65.0798 53.0701C63.4398 57.1901 61.1798 60.6301 58.2798 63.3901C55.3798 66.1501 51.9598 68.2501 48.0098 69.6801C44.0498 71.1101 39.7598 71.8301 35.1198 71.8301C30.4898 71.8301 26.1998 71.1001 22.2398 69.6301C18.2898 68.1601 14.8798 66.0301 12.0198 63.2401C9.15983 60.4401 6.90982 57.0001 5.26982 52.9101C3.63982 48.8201 2.81982 44.1601 2.81982 38.9101ZM21.2198 38.9101C21.2198 45.1101 22.4798 49.7401 24.9998 52.8101C27.5298 55.8801 30.8998 57.4101 35.1198 57.4101C39.4198 57.4101 42.8298 55.8801 45.3498 52.8101C47.8698 49.7401 49.1298 45.1101 49.1298 38.9101C49.1298 32.7701 47.8898 28.1701 45.3998 25.1101C42.9098 22.0401 39.5198 20.5001 35.2298 20.5001C30.9998 20.5001 27.6098 22.0201 25.0498 25.0501C22.4998 28.0901 21.2198 32.7001 21.2198 38.9101ZM127.85 45.1401C127.85 49.3701 127.21 53.1401 125.91 56.4401C124.62 59.7501 122.79 62.5201 120.44 64.7701C118.09 67.0201 115.28 68.7301 112.01 69.8801C108.74 71.0401 105.09 71.6201 101.07 71.6201C97.0498 71.6201 93.3998 71.0101 90.1298 69.7801C86.8598 68.5601 84.0398 66.8001 81.6898 64.5201C79.3398 62.2301 77.5198 59.4601 76.2198 56.1901C74.9298 52.9101 74.2798 49.2301 74.2798 45.1401C74.2798 41.1201 74.9298 37.4801 76.2198 34.2001C77.5198 30.9301 79.3398 28.1601 81.6898 25.8701C84.0398 23.5901 86.8598 21.8301 90.1298 20.6101C93.3998 19.3801 97.0498 18.7701 101.07 18.7701C105.09 18.7701 108.74 19.4001 112.01 20.6601C115.28 21.9201 118.09 23.6901 120.44 25.9701C122.79 28.2601 124.62 31.0401 125.91 34.3101C127.21 37.5801 127.85 41.1901 127.85 45.1401ZM92.0698 45.1401C92.0698 49.3001 92.8698 52.4901 94.4698 54.7001C96.0798 56.9201 98.3098 58.0301 101.17 58.0301C104.03 58.0301 106.23 56.9001 107.76 54.6501C109.3 52.4001 110.06 49.2301 110.06 45.1401C110.06 41.0501 109.28 37.9001 107.71 35.6901C106.15 33.4701 103.93 32.3601 101.07 32.3601C98.1998 32.3601 95.9898 33.4701 94.4198 35.6901C92.8498 37.9001 92.0698 41.0501 92.0698 45.1401ZM159.14 18.7701C163.23 18.7701 167.03 19.2901 170.54 20.3501C174.05 21.4101 177.06 23.0301 179.59 25.2101C182.11 27.3901 184.08 30.1301 185.52 33.4401C186.95 36.7401 187.66 40.6801 187.66 45.2501C187.66 49.6101 187.05 53.4201 185.82 56.7001C184.6 59.9701 182.86 62.7101 180.61 64.9301C178.36 67.1401 175.65 68.7901 172.48 69.8801C169.31 70.9801 165.78 71.5201 161.9 71.5201C158.97 71.5201 156.24 71.0801 153.72 70.1901V87.1601C153.04 87.3701 151.95 87.5901 150.45 87.8301C148.95 88.0701 147.41 88.1901 145.85 88.1901C144.35 88.1901 143 88.0801 141.81 87.8801C140.62 87.6701 139.61 87.2701 138.79 86.6501C137.97 86.0401 137.36 85.2001 136.95 84.1501C136.54 83.0901 136.34 81.7101 136.34 80.0101V30.9301C136.34 29.0901 136.73 27.5901 137.51 26.4301C138.3 25.2801 139.37 24.2201 140.74 23.2601C142.85 21.9001 145.47 20.8101 148.61 19.9901C151.74 19.1801 155.25 18.7701 159.14 18.7701ZM159.34 57.8201C166.36 57.8201 169.87 53.6301 169.87 45.2501C169.87 40.8801 169 37.6501 167.27 35.5301C165.53 33.4201 163.02 32.3601 159.75 32.3601C158.46 32.3601 157.3 32.5201 156.28 32.8201C155.25 33.1301 154.37 33.4901 153.62 33.9001V56.3901C154.44 56.8001 155.32 57.1401 156.28 57.4101C157.23 57.6801 158.25 57.8201 159.34 57.8201ZM238.07 55.1601C238.07 60.3401 236.12 64.4001 232.24 67.3301C228.35 70.2601 222.63 71.7301 215.06 71.7301C212.2 71.7301 209.54 71.5201 207.09 71.1101C204.63 70.7001 202.54 70.0701 200.8 69.2201C199.06 68.3701 197.7 67.2901 196.71 66.0001C195.72 64.7101 195.23 63.1701 195.23 61.4001C195.23 59.7601 195.57 58.3801 196.25 57.2601C196.93 56.1301 197.75 55.2001 198.7 54.4501C200.68 55.5401 202.95 56.5101 205.5 57.3601C208.06 58.2101 211.01 58.6401 214.35 58.6401C216.46 58.6401 218.08 58.3301 219.2 57.7201C220.33 57.1101 220.89 56.2901 220.89 55.2601C220.89 54.3101 220.48 53.5601 219.66 53.0201C218.85 52.4701 217.48 52.0301 215.57 51.6901L212.51 51.0701C206.58 49.9101 202.16 48.0901 199.27 45.6001C196.37 43.1201 194.92 39.5601 194.92 34.9201C194.92 32.4001 195.47 30.1101 196.56 28.0701C197.65 26.0301 199.18 24.3201 201.16 22.9601C203.13 21.6001 205.5 20.5401 208.26 19.7901C211.02 19.0401 214.07 18.6601 217.41 18.6601C219.94 18.6601 222.3 18.8501 224.52 19.2301C226.73 19.6001 228.66 20.1601 230.3 20.9101C231.93 21.6601 233.23 22.6301 234.18 23.8301C235.13 25.0201 235.61 26.4301 235.61 28.0701C235.61 29.6401 235.32 30.9801 234.74 32.1101C234.16 33.2301 233.43 34.1701 232.54 34.9201C232 34.5801 231.18 34.2201 230.09 33.8501C229 33.4701 227.81 33.1301 226.51 32.8201C225.22 32.5201 223.91 32.2601 222.58 32.0601C221.25 31.8501 220.04 31.7501 218.95 31.7501C216.7 31.7501 214.96 32.0101 213.73 32.5201C212.51 33.0301 211.89 33.8301 211.89 34.9201C211.89 35.6701 212.23 36.2801 212.92 36.7601C213.6 37.2401 214.89 37.6801 216.8 38.0901L219.97 38.8001C226.51 40.3001 231.16 42.3701 233.92 44.9901C236.68 47.6101 238.07 51.0101 238.07 55.1601ZM265.36 10.6901C265.36 12.2601 265.33 14.5201 265.26 17.4901C265.19 20.4501 265.06 23.6601 264.85 27.1001C264.65 30.5401 264.37 33.9801 264.03 37.4201C263.69 40.8701 263.28 43.8501 262.81 46.3701C262.53 46.5801 262.13 46.7801 261.58 46.9801C261.03 47.1901 260.46 47.3601 259.84 47.5001C259.23 47.6301 258.61 47.7301 258 47.8001C257.39 47.8701 256.84 47.9001 256.37 47.9001C254.39 47.9001 252.74 47.6001 251.41 46.9801C250.08 46.3701 249.24 45.1801 248.9 43.4001C248.56 41.8401 248.27 39.4501 248.03 36.2501C247.8 33.0501 247.57 29.5701 247.37 25.8201C247.16 22.0701 247.01 18.3601 246.91 14.6801C246.81 11.0001 246.76 7.86007 246.76 5.27007C248.12 4.52007 249.67 3.92007 251.41 3.48007C253.15 3.04007 254.87 2.82007 256.57 2.82007C259.37 2.82007 261.53 3.46007 263.06 4.76007C264.6 6.06007 265.36 8.03007 265.36 10.6901ZM246.55 62.2201C246.55 59.4201 247.42 57.1201 249.16 55.3201C250.9 53.5101 253.3 52.6101 256.37 52.6101C259.43 52.6101 261.84 53.5101 263.57 55.3201C265.31 57.1201 266.18 59.4201 266.18 62.2201C266.18 65.0101 265.31 67.3101 263.57 69.1201C261.84 70.9201 259.43 71.8301 256.37 71.8301C253.3 71.8301 250.9 70.9201 249.16 69.1201C247.42 67.3101 246.55 65.0101 246.55 62.2201Z" fill="#FF66C1"/>
<path fill-rule="evenodd" clip-rule="evenodd" d="M14.9499 16.9101C17.8399 14.1501 21.2499 12.0601 25.1699 10.6301C29.0899 9.20009 33.3299 8.48009 37.8999 8.48009C42.4699 8.48009 46.7099 9.20009 50.6299 10.6301C53.5199 11.6801 56.1499 13.1001 58.4999 14.8901C58.3799 14.7601 58.2499 14.6401 58.1299 14.5201C55.1999 11.7601 51.7699 9.67009 47.8499 8.24009C43.9299 6.81009 39.6899 6.09009 35.1199 6.09009C30.5599 6.09009 26.3099 6.81009 22.3999 8.24009C18.4799 9.67009 15.0699 11.7601 12.1699 14.5201C9.26995 17.2901 6.98995 20.7101 5.31995 24.8001C3.64995 28.8901 2.81995 33.5901 2.81995 38.9101C2.81995 44.1601 3.62995 48.8201 5.26995 52.9101C6.90995 57.0001 9.14995 60.4501 12.0199 63.2401C12.8699 64.0701 13.7799 64.8501 14.7299 65.5701C11.8999 62.7801 9.66995 59.3601 8.04995 55.3001C6.40995 51.2101 5.58995 46.5501 5.58995 41.3001C5.58995 35.9801 6.42995 31.2801 8.09995 27.1901C9.76995 23.1001 12.0499 19.6801 14.9499 16.9101Z" fill="#B247A9"/>
<path fill-rule="evenodd" clip-rule="evenodd" d="M92.9 23.0001C96.18 21.7701 99.82 21.1601 103.84 21.1601C107.86 21.1601 111.51 21.7901 114.78 23.0501C116.98 23.8901 118.97 24.9701 120.75 26.2801C120.65 26.1801 120.54 26.0701 120.44 25.9701C118.09 23.6901 115.28 21.9201 112.01 20.6601C108.74 19.4001 105.09 18.7701 101.07 18.7701C97.05 18.7701 93.4 19.3801 90.13 20.6101C86.86 21.8301 84.04 23.5901 81.69 25.8701C79.34 28.1601 77.52 30.9301 76.22 34.2001C74.93 37.4801 74.28 41.1201 74.28 45.1401C74.28 49.2301 74.93 52.9101 76.22 56.1901C77.52 59.4601 79.34 62.2401 81.69 64.5201C82.46 65.2601 83.28 65.9501 84.15 66.5901C81.95 64.3701 80.23 61.7001 79 58.5801C77.7 55.3001 77.06 51.6201 77.06 47.5301C77.06 43.5101 77.7 39.8701 79 36.5901C80.29 33.3201 82.12 30.5501 84.47 28.2601C86.82 25.9801 89.63 24.2201 92.9 23.0001Z" fill="#B247A9"/>
<path fill-rule="evenodd" clip-rule="evenodd" d="M143.51 25.6601C145.63 24.2901 148.25 23.2001 151.39 22.3801C154.52 21.5701 158.03 21.1601 161.92 21.1601C166 21.1601 169.81 21.6801 173.32 22.7401C176.16 23.6001 178.67 24.8201 180.87 26.4101C180.46 25.9901 180.03 25.5901 179.59 25.2101C177.07 23.0301 174.05 21.4101 170.54 20.3501C167.03 19.2901 163.23 18.7701 159.14 18.7701C155.25 18.7701 151.74 19.1801 148.61 19.9901C145.47 20.8101 142.85 21.9001 140.74 23.2701C139.37 24.2201 138.3 25.2801 137.52 26.4301C136.73 27.5901 136.34 29.0901 136.34 30.9301V80.0101C136.34 81.7101 136.54 83.0901 136.95 84.1501C137.36 85.2001 137.97 86.0401 138.79 86.6501C139.2 86.9601 139.65 87.2101 140.14 87.4101C139.99 87.1401 139.85 86.8501 139.73 86.5401C139.32 85.4801 139.12 84.1001 139.12 82.4001V33.3201C139.12 31.4801 139.51 29.9801 140.29 28.8301C141.08 27.6701 142.15 26.6101 143.51 25.6601Z" fill="#B247A9"/>
<path fill-rule="evenodd" clip-rule="evenodd" d="M250.81 38.6401C250.57 35.4401 250.35 31.9601 250.15 28.2101C249.94 24.4601 249.79 20.7501 249.69 17.0701C249.59 13.3901 249.54 10.2501 249.54 7.66007C250.9 6.91007 252.45 6.31007 254.19 5.87007C255.92 5.43007 257.65 5.21007 259.35 5.21007C261.29 5.21007 262.93 5.52007 264.26 6.14007C263.93 5.62007 263.54 5.16007 263.07 4.76007C261.53 3.46007 259.37 2.82007 256.57 2.82007C254.87 2.82007 253.15 3.04007 251.41 3.48007C249.67 3.93007 248.12 4.52007 246.76 5.27007C246.76 7.86007 246.81 11.0001 246.91 14.6801C247.01 18.3601 247.17 22.0701 247.37 25.8201C247.58 29.5701 247.8 33.0501 248.04 36.2501C248.28 39.4501 248.56 41.8401 248.91 43.4001C249.25 45.1801 250.08 46.3701 251.41 46.9801C251.64 47.0901 251.89 47.1901 252.14 47.2801C251.94 46.8401 251.79 46.3501 251.68 45.8001C251.34 44.2301 251.05 41.8401 250.81 38.6401Z" fill="#B247A9"/>
<path fill-rule="evenodd" clip-rule="evenodd" d="M249.33 64.61C249.33 61.81 250.2 59.51 251.94 57.71C253.68 55.9 256.08 55 259.14 55C261.14 55 262.85 55.38 264.29 56.14C264.07 55.86 263.83 55.58 263.58 55.32C261.84 53.51 259.43 52.61 256.37 52.61C253.3 52.61 250.9 53.51 249.16 55.32C247.42 57.12 246.55 59.42 246.55 62.22C246.55 65.01 247.42 67.31 249.16 69.12C249.77 69.75 250.46 70.27 251.23 70.68C249.96 69.02 249.33 66.99 249.33 64.61Z" fill="#B247A9"/>
<path fill-rule="evenodd" clip-rule="evenodd" d="M203.84 24.62C204.85 23.92 205.96 23.3 207.18 22.76C208.39 22.22 209.69 21.76 211.09 21.38C212.49 21 213.97 20.71 215.52 20.52C217.06 20.33 218.68 20.24 220.37 20.24C221.64 20.24 222.88 20.29 224.08 20.38C225.26 20.47 226.43 20.62 227.55 20.81C228.68 21 229.74 21.24 230.72 21.52C231.25 21.68 231.77 21.85 232.27 22.04C231.68 21.62 231.02 21.25 230.3 20.91C228.66 20.16 226.74 19.6 224.52 19.23C222.31 18.85 219.94 18.66 217.42 18.66C214.07 18.66 211.03 19.04 208.27 19.79C205.5 20.54 203.14 21.6 201.16 22.96C199.18 24.32 197.65 26.03 196.56 28.07C195.47 30.11 194.92 32.4 194.92 34.92C194.92 39.56 196.37 43.12 199.27 45.6C199.62 45.9 199.99 46.19 200.38 46.47C198.39 44.03 197.39 40.87 197.39 36.98C197.39 35.69 197.53 34.45 197.81 33.26C198.09 32.09 198.52 30.96 199.08 29.9C199.65 28.84 200.33 27.87 201.12 26.99C201.91 26.11 202.82 25.32 203.84 24.62Z" fill="#B247A9"/>
</svg>
